<?xml version="1.0" encoding="UTF-8" standalone="no"?>
<!-- Created with Inkscape (http://www.inkscape.org/) -->

<svg
   width="32"
   height="32"
   viewBox="0 0 8.4666665 8.4666666"
   version="1.1"
   id="svg1"
   inkscape:version="1.4.2 (ebf0e940, 2025-05-08)"
   sodipodi:docname="favicon.svg"
   xmlns:inkscape="http://www.inkscape.org/namespaces/inkscape"
   xmlns:sodipodi="http://sodipodi.sourceforge.net/DTD/sodipodi-0.dtd"
   xmlns="http://www.w3.org/2000/svg"
   xmlns:svg="http://www.w3.org/2000/svg">
  <sodipodi:namedview
     id="namedview1"
     pagecolor="#ffffff"
     bordercolor="#999999"
     borderopacity="1"
     inkscape:showpageshadow="2"
     inkscape:pageopacity="0"
     inkscape:pagecheckerboard="0"
     inkscape:deskcolor="#d1d1d1"
     inkscape:document-units="mm"
     inkscape:zoom="14.716811"
     inkscape:cx="14.133497"
     inkscape:cy="16.545704"
     inkscape:window-width="1440"
     inkscape:window-height="786"
     inkscape:window-x="0"
     inkscape:window-y="30"
     inkscape:window-maximized="1"
     inkscape:current-layer="layer1" />
  <defs
     id="defs1">
    <clipPath
       clipPathUnits="userSpaceOnUse"
       id="clipPath94-5-5">
      <path
         d="M 0,1037.5937 H 1815.789 V 0 H 0 Z"
         transform="translate(0,2.5000001e-5)"
         clip-rule="evenodd"
         id="path94-3-8" />
    </clipPath>
    <clipPath
       clipPathUnits="userSpaceOnUse"
       id="clipPath96-7-5">
      <path
         d="M 0,1037.5937 H 1815.789 V 0 H 0 Z"
         transform="translate(0,2.5000001e-5)"
         clip-rule="evenodd"
         id="path96-2-9" />
    </clipPath>
    <clipPath
       clipPathUnits="userSpaceOnUse"
       id="clipPath98-18-1">
      <path
         d="M 0,1037.5937 H 1815.789 V 0 H 0 Z"
         transform="translate(0,2.5000001e-5)"
         clip-rule="evenodd"
         id="path98-4-4" />
    </clipPath>
    <clipPath
       clipPathUnits="userSpaceOnUse"
       id="clipPath100-2-0">
      <path
         d="M 0,1037.5937 H 1815.789 V 0 H 0 Z"
         transform="translate(0,2.5000001e-5)"
         clip-rule="evenodd"
         id="path100-10-6" />
    </clipPath>
    <clipPath
       clipPathUnits="userSpaceOnUse"
       id="clipPath102-6-2">
      <path
         d="M 0,1037.5937 H 1815.789 V 0 H 0 Z"
         transform="translate(0,2.5000001e-5)"
         clip-rule="evenodd"
         id="path102-03-3" />
    </clipPath>
    <clipPath
       clipPathUnits="userSpaceOnUse"
       id="clipPath104-7-3">
      <path
         d="M 0,1037.5937 H 1815.789 V 0 H 0 Z"
         transform="translate(0,2.5000001e-5)"
         clip-rule="evenodd"
         id="path104-8-5" />
    </clipPath>
    <clipPath
       clipPathUnits="userSpaceOnUse"
       id="clipPath106-4-1">
      <path
         d="M 0,1037.5937 H 1815.789 V 0 H 0 Z"
         transform="translate(0,2.5000001e-5)"
         clip-rule="evenodd"
         id="path106-7-5" />
    </clipPath>
    <clipPath
       clipPathUnits="userSpaceOnUse"
       id="clipPath108-9-2">
      <path
         d="M 0,1037.5937 H 1815.789 V 0 H 0 Z"
         transform="translate(0,2.5000001e-5)"
         clip-rule="evenodd"
         id="path108-5-8" />
    </clipPath>
    <clipPath
       clipPathUnits="userSpaceOnUse"
       id="clipPath110-33-5">
      <path
         d="M 0,1037.5937 H 1815.789 V 0 H 0 Z"
         transform="translate(0,2.5000001e-5)"
         clip-rule="evenodd"
         id="path110-6-2" />
    </clipPath>
    <clipPath
       clipPathUnits="userSpaceOnUse"
       id="clipPath112-08-0">
      <path
         d="M 0,1037.5937 H 1815.789 V 0 H 0 Z"
         transform="translate(0,2.5000001e-5)"
         clip-rule="evenodd"
         id="path112-97-1" />
    </clipPath>
    <clipPath
       clipPathUnits="userSpaceOnUse"
       id="clipPath114-45-0">
      <path
         d="M 0,1037.5937 H 1815.789 V 0 H 0 Z"
         transform="translate(0,2.5000001e-5)"
         clip-rule="evenodd"
         id="path114-9-3" />
    </clipPath>
    <clipPath
       clipPathUnits="userSpaceOnUse"
       id="clipPath116-7-7">
      <path
         d="M 0,1037.5937 H 1815.789 V 0 H 0 Z"
         transform="translate(0,2.5000001e-5)"
         clip-rule="evenodd"
         id="path116-5-9" />
    </clipPath>
    <clipPath
       clipPathUnits="userSpaceOnUse"
       id="clipPath118-74-0">
      <path
         d="M 0,1037.5937 H 1815.789 V 0 H 0 Z"
         transform="translate(0,2.5000001e-5)"
         clip-rule="evenodd"
         id="path118-58-1" />
    </clipPath>
    <clipPath
       clipPathUnits="userSpaceOnUse"
       id="clipPath120-7-9">
      <path
         d="M 0,1037.5937 H 1815.789 V 0 H 0 Z"
         transform="translate(0,2.5000001e-5)"
         clip-rule="evenodd"
         id="path120-95-2" />
    </clipPath>
    <clipPath
       clipPathUnits="userSpaceOnUse"
       id="clipPath122-96-9">
      <path
         d="M 0,1037.5937 H 1815.789 V 0 H 0 Z"
         transform="translate(0,2.5000001e-5)"
         clip-rule="evenodd"
         id="path122-6-6" />
    </clipPath>
    <clipPath
       clipPathUnits="userSpaceOnUse"
       id="clipPath124-8-9">
      <path
         d="M 0,1037.5937 H 1815.789 V 0 H 0 Z"
         transform="translate(0,2.5000001e-5)"
         clip-rule="evenodd"
         id="path124-5-1" />
    </clipPath>
    <clipPath
       clipPathUnits="userSpaceOnUse"
       id="clipPath126-28-6">
      <path
         d="M 0,1037.5937 H 1815.789 V 0 H 0 Z"
         transform="translate(0,2.5000001e-5)"
         clip-rule="evenodd"
         id="path126-3-0" />
    </clipPath>
    <clipPath
       clipPathUnits="userSpaceOnUse"
       id="clipPath128-9-1">
      <path
         d="M 0,1037.5937 H 1815.789 V 0 H 0 Z"
         transform="translate(0,2.5000001e-5)"
         clip-rule="evenodd"
         id="path128-3-0" />
    </clipPath>
    <clipPath
       clipPathUnits="userSpaceOnUse"
       id="clipPath130-3-2">
      <path
         d="M 0,1037.5937 H 1815.789 V 0 H 0 Z"
         transform="translate(0,2.5000001e-5)"
         clip-rule="evenodd"
         id="path130-3-1" />
    </clipPath>
    <clipPath
       clipPathUnits="userSpaceOnUse"
       id="clipPath132-9-5">
      <path
         d="M 0,1037.5937 H 1815.789 V 0 H 0 Z"
         transform="translate(0,2.5000001e-5)"
         clip-rule="evenodd"
         id="path132-1-0" />
    </clipPath>
    <clipPath
       clipPathUnits="userSpaceOnUse"
       id="clipPath134-4-4">
      <path
         d="M 0,1037.5937 H 1815.789 V 0 H 0 Z"
         transform="translate(0,2.5000001e-5)"
         clip-rule="evenodd"
         id="path134-4-7" />
    </clipPath>
    <clipPath
       clipPathUnits="userSpaceOnUse"
       id="clipPath136-52-3">
      <path
         d="M 0,1037.5937 H 1815.789 V 0 H 0 Z"
         transform="translate(0,2.5000001e-5)"
         clip-rule="evenodd"
         id="path136-6-5" />
    </clipPath>
    <clipPath
       clipPathUnits="userSpaceOnUse"
       id="clipPath138-95-8">
      <path
         d="M 0,1037.5937 H 1815.789 V 0 H 0 Z"
         transform="translate(0,2.5000001e-5)"
         clip-rule="evenodd"
         id="path138-0-1" />
    </clipPath>
    <clipPath
       clipPathUnits="userSpaceOnUse"
       id="clipPath140-3-6">
      <path
         d="M 0,1037.5937 H 1815.789 V 0 H 0 Z"
         transform="translate(0,2.5000001e-5)"
         clip-rule="evenodd"
         id="path140-0-3" />
    </clipPath>
    <clipPath
       clipPathUnits="userSpaceOnUse"
       id="clipPath142-28-8">
      <path
         d="M 0,1037.5937 H 1815.789 V 0 H 0 Z"
         transform="translate(0,2.5000001e-5)"
         clip-rule="evenodd"
         id="path142-31-6" />
    </clipPath>
    <clipPath
       clipPathUnits="userSpaceOnUse"
       id="clipPath144-78-0">
      <path
         d="M 0,1037.5937 H 1815.789 V 0 H 0 Z"
         transform="translate(0,2.5000001e-5)"
         clip-rule="evenodd"
         id="path144-6-2" />
    </clipPath>
    <clipPath
       clipPathUnits="userSpaceOnUse"
       id="clipPath146-8-6">
      <path
         d="M 0,1037.5937 H 1815.789 V 0 H 0 Z"
         transform="translate(0,2.5000001e-5)"
         clip-rule="evenodd"
         id="path146-6-9" />
    </clipPath>
    <clipPath
       clipPathUnits="userSpaceOnUse"
       id="clipPath148-7-0">
      <path
         d="M 0,1037.5937 H 1815.789 V 0 H 0 Z"
         transform="translate(0,2.5000001e-5)"
         clip-rule="evenodd"
         id="path148-4-2" />
    </clipPath>
    <clipPath
       clipPathUnits="userSpaceOnUse"
       id="clipPath150-00-1">
      <path
         d="M 0,1037.5937 H 1815.789 V 0 H 0 Z"
         transform="translate(0,2.5000001e-5)"
         clip-rule="evenodd"
         id="path150-87-2" />
    </clipPath>
  </defs>
  <g
     inkscape:label="Layer 1"
     inkscape:groupmode="layer"
     id="layer1">
    <circle
       style="fill:#079be1;fill-opacity:1;stroke-width:0.428085"
       id="path1"
       cx="4.2333331"
       cy="4.2333331"
       r="4.2333331" />
    <path
       id="path143"
       d="m 233.0161,687.5603 c 9.2013,-0.4521 8.356,0.2866 17.1955,8.2211 22.8365,20.4967 51.0698,-4.8167 51.23,-15.0979 0.0765,-4.9184 -6.6333,-14.4066 -8.6615,-18.4105 -8.4963,-16.7766 -19.4103,-41.4816 -23.2081,-59.7356 -3.892,-18.7084 12.9693,-25.8945 26.219,-12.966 9.8484,9.6092 14.8,20.1671 22.3807,32.8808 3.3205,5.5692 5.6608,11.1461 9.3552,17.424 7.215,12.2612 27.6154,39.5121 41.2367,41.9349 5.4632,-4.7614 24.1336,-49.0167 31.6981,-63.9335 3.149,-6.2098 7.0946,-16.302 17.1136,-14.2837 10.2643,2.0681 0.855,17.0625 -1.2773,21.1552 l -21.8585,42.4295 c -3.4174,6.5761 -9.4994,14.4219 -9.1519,23.2954 1.6276,3.6377 32.3277,13.4964 35.2171,14.4086 26.486,8.3687 47.3204,12.7817 64.8104,33.976 5.6087,6.7975 16.1981,24.1597 11.8472,36.0142 -2.6541,-2.5435 -4.6832,-12.6105 -6.6337,-17.132 -16.6858,-38.6847 -62.1042,-41.7028 -92.9055,-51.5427 -5.0757,-1.6214 -13.9453,-5.3345 -19.0511,-4.3906 -2.861,8.1576 -6.3887,18.3827 -9.6967,26.1896 l -18.0777,55.2611 c -1.7467,6.105 -5.9111,24.3136 -10.5471,26.7347 -4.3232,2.2575 -9.3269,-1.2776 -10.1994,-5.7169 -0.9589,-4.879 10.5174,-35.4498 -7.6969,-79.6808 -1.8796,-4.5637 -7.8766,-22.7355 -12.4401,-25.7218 -2.7304,1.1783 -5.6376,4.8109 -8.0527,6.7187 -15.0369,11.88 -19.7915,7.503 -34.0988,9.6273 -0.0949,5.4414 11.8931,16.7434 11.5149,40.3512 -0.2494,15.5684 -7.6901,28.8651 -18.6894,35.3831 -13.5499,8.03 -30.2119,-2.9171 -37.8711,-9.7384 -9.8586,-8.7792 -16.0212,-17.3928 -23.0825,-31.278 -18.6288,-36.6313 -14.4885,-95.785 9.8645,-127.8315 3.5691,-4.6979 22.1596,-25.7562 29.4676,-22.0802 0.3444,4.4782 -13.8509,13.4178 -23.5653,27.1335 -22.6981,32.0477 -23.8728,91.9358 -3.7706,125.0476 23.2446,38.2861 52.895,35.6802 54.9646,6.9647 1.2416,-17.2202 -4.0654,-30.774 -11.1302,-40.9235 -5.2824,-7.5875 -5.2583,-8.3432 -12.011,-13.9303 -9.6364,-7.9739 -9.1789,-8.6556 -10.438,-16.7573 z m 50.885,-92.5744 c 5.5587,1.1979 8.2732,7.0971 10.9945,11.3921 1.8637,2.9433 2.5497,3.3103 4.0623,6.7502 5.5604,12.6434 13.1204,30.7922 9.5879,45.8045 -5.2478,-0.4992 -3.8639,-1.4125 -10.2342,-13.0156 -5.5454,-10.1013 -9.9669,-20.9976 -13.4266,-32.1979 -2.3236,-7.5217 -3.9849,-10.9837 -0.9839,-18.7333 z m 41.1712,67.5992 17.7211,16.4217 c 6.029,5.415 20.2212,13.2565 20.8755,15.0338 1.205,3.2754 -10.9908,32.4935 -13.9913,42.349 -1.3935,4.576 -3.1283,12.4932 -5.8802,13.4334 -2.4309,-5.7997 -4.2842,-15.6965 -6.1769,-22.225 -1.7929,-6.1849 -15.9112,-34.6822 -16.8942,-40.047 -0.79,-4.3107 -0.6197,-9.6628 -0.2883,-14.0619 0.3832,-5.1023 1.131,-9.1 4.6343,-10.904"
       style="fill:#ffffff;fill-opacity:1;fill-rule:evenodd;stroke:none"
       transform="matrix(0.02369779,0,0,-0.02369779,-3.8974671,20.747305)"
       clip-path="url(#clipPath144-78-0)" />
  </g>
</svg>
