<?xml version="1.0" encoding="UTF-8" standalone="no"?>
<!-- Created with Inkscape (http://www.inkscape.org/) -->

<svg
   width="1600"
   height="392.258"
   viewBox="0 0 423.33333 103.78493"
   version="1.1"
   id="svg1"
   inkscape:export-filename="logo-no-bg.png"
   inkscape:export-xdpi="96"
   inkscape:export-ydpi="96"
   sodipodi:docname="logo-no-bg-blue-typography.svg"
   inkscape:version="1.4.2 (ebf0e940, 2025-05-08)"
   xmlns:inkscape="http://www.inkscape.org/namespaces/inkscape"
   xmlns:sodipodi="http://sodipodi.sourceforge.net/DTD/sodipodi-0.dtd"
   xmlns="http://www.w3.org/2000/svg"
   xmlns:svg="http://www.w3.org/2000/svg">
  <sodipodi:namedview
     id="namedview1"
     pagecolor="#ffffff"
     bordercolor="#999999"
     borderopacity="1"
     inkscape:showpageshadow="true"
     inkscape:pageopacity="0"
     inkscape:pagecheckerboard="true"
     inkscape:deskcolor="#d1d1d1"
     inkscape:document-units="mm"
     labelstyle="default"
     borderlayer="true"
     showborder="true"
     inkscape:antialias-rendering="true"
     inkscape:clip-to-page="false"
     inkscape:zoom="0.42387957"
     inkscape:cx="858.73447"
     inkscape:cy="192.27159"
     inkscape:window-width="1440"
     inkscape:window-height="786"
     inkscape:window-x="0"
     inkscape:window-y="30"
     inkscape:window-maximized="1"
     inkscape:current-layer="layer1">
    <inkscape:page
       x="0"
       y="0"
       width="423.33334"
       height="103.78493"
       id="page2"
       margin="0"
       bleed="0" />
  </sodipodi:namedview>
  <defs
     id="defs1">
    <clipPath
       clipPathUnits="userSpaceOnUse"
       id="clipPath94-5">
      <path
         d="M 0,1037.5937 H 1815.789 V 0 H 0 Z"
         transform="translate(0,2.5000001e-5)"
         clip-rule="evenodd"
         id="path94-3" />
    </clipPath>
    <clipPath
       clipPathUnits="userSpaceOnUse"
       id="clipPath96-7">
      <path
         d="M 0,1037.5937 H 1815.789 V 0 H 0 Z"
         transform="translate(0,2.5000001e-5)"
         clip-rule="evenodd"
         id="path96-2" />
    </clipPath>
    <clipPath
       clipPathUnits="userSpaceOnUse"
       id="clipPath98-18">
      <path
         d="M 0,1037.5937 H 1815.789 V 0 H 0 Z"
         transform="translate(0,2.5000001e-5)"
         clip-rule="evenodd"
         id="path98-4" />
    </clipPath>
    <clipPath
       clipPathUnits="userSpaceOnUse"
       id="clipPath100-2">
      <path
         d="M 0,1037.5937 H 1815.789 V 0 H 0 Z"
         transform="translate(0,2.5000001e-5)"
         clip-rule="evenodd"
         id="path100-10" />
    </clipPath>
    <clipPath
       clipPathUnits="userSpaceOnUse"
       id="clipPath102-6">
      <path
         d="M 0,1037.5937 H 1815.789 V 0 H 0 Z"
         transform="translate(0,2.5000001e-5)"
         clip-rule="evenodd"
         id="path102-03" />
    </clipPath>
    <clipPath
       clipPathUnits="userSpaceOnUse"
       id="clipPath104-7">
      <path
         d="M 0,1037.5937 H 1815.789 V 0 H 0 Z"
         transform="translate(0,2.5000001e-5)"
         clip-rule="evenodd"
         id="path104-8" />
    </clipPath>
    <clipPath
       clipPathUnits="userSpaceOnUse"
       id="clipPath106-4">
      <path
         d="M 0,1037.5937 H 1815.789 V 0 H 0 Z"
         transform="translate(0,2.5000001e-5)"
         clip-rule="evenodd"
         id="path106-7" />
    </clipPath>
    <clipPath
       clipPathUnits="userSpaceOnUse"
       id="clipPath108-9">
      <path
         d="M 0,1037.5937 H 1815.789 V 0 H 0 Z"
         transform="translate(0,2.5000001e-5)"
         clip-rule="evenodd"
         id="path108-5" />
    </clipPath>
    <clipPath
       clipPathUnits="userSpaceOnUse"
       id="clipPath110-33">
      <path
         d="M 0,1037.5937 H 1815.789 V 0 H 0 Z"
         transform="translate(0,2.5000001e-5)"
         clip-rule="evenodd"
         id="path110-6" />
    </clipPath>
    <clipPath
       clipPathUnits="userSpaceOnUse"
       id="clipPath112-08">
      <path
         d="M 0,1037.5937 H 1815.789 V 0 H 0 Z"
         transform="translate(0,2.5000001e-5)"
         clip-rule="evenodd"
         id="path112-97" />
    </clipPath>
    <clipPath
       clipPathUnits="userSpaceOnUse"
       id="clipPath114-45">
      <path
         d="M 0,1037.5937 H 1815.789 V 0 H 0 Z"
         transform="translate(0,2.5000001e-5)"
         clip-rule="evenodd"
         id="path114-9" />
    </clipPath>
    <clipPath
       clipPathUnits="userSpaceOnUse"
       id="clipPath116-7">
      <path
         d="M 0,1037.5937 H 1815.789 V 0 H 0 Z"
         transform="translate(0,2.5000001e-5)"
         clip-rule="evenodd"
         id="path116-5" />
    </clipPath>
    <clipPath
       clipPathUnits="userSpaceOnUse"
       id="clipPath118-74">
      <path
         d="M 0,1037.5937 H 1815.789 V 0 H 0 Z"
         transform="translate(0,2.5000001e-5)"
         clip-rule="evenodd"
         id="path118-58" />
    </clipPath>
    <clipPath
       clipPathUnits="userSpaceOnUse"
       id="clipPath120-7">
      <path
         d="M 0,1037.5937 H 1815.789 V 0 H 0 Z"
         transform="translate(0,2.5000001e-5)"
         clip-rule="evenodd"
         id="path120-95" />
    </clipPath>
    <clipPath
       clipPathUnits="userSpaceOnUse"
       id="clipPath122-96">
      <path
         d="M 0,1037.5937 H 1815.789 V 0 H 0 Z"
         transform="translate(0,2.5000001e-5)"
         clip-rule="evenodd"
         id="path122-6" />
    </clipPath>
    <clipPath
       clipPathUnits="userSpaceOnUse"
       id="clipPath124-8">
      <path
         d="M 0,1037.5937 H 1815.789 V 0 H 0 Z"
         transform="translate(0,2.5000001e-5)"
         clip-rule="evenodd"
         id="path124-5" />
    </clipPath>
    <clipPath
       clipPathUnits="userSpaceOnUse"
       id="clipPath126-28">
      <path
         d="M 0,1037.5937 H 1815.789 V 0 H 0 Z"
         transform="translate(0,2.5000001e-5)"
         clip-rule="evenodd"
         id="path126-3" />
    </clipPath>
    <clipPath
       clipPathUnits="userSpaceOnUse"
       id="clipPath128-9">
      <path
         d="M 0,1037.5937 H 1815.789 V 0 H 0 Z"
         transform="translate(0,2.5000001e-5)"
         clip-rule="evenodd"
         id="path128-3" />
    </clipPath>
    <clipPath
       clipPathUnits="userSpaceOnUse"
       id="clipPath130-3">
      <path
         d="M 0,1037.5937 H 1815.789 V 0 H 0 Z"
         transform="translate(0,2.5000001e-5)"
         clip-rule="evenodd"
         id="path130-3" />
    </clipPath>
    <clipPath
       clipPathUnits="userSpaceOnUse"
       id="clipPath132-9">
      <path
         d="M 0,1037.5937 H 1815.789 V 0 H 0 Z"
         transform="translate(0,2.5000001e-5)"
         clip-rule="evenodd"
         id="path132-1" />
    </clipPath>
    <clipPath
       clipPathUnits="userSpaceOnUse"
       id="clipPath134-4">
      <path
         d="M 0,1037.5937 H 1815.789 V 0 H 0 Z"
         transform="translate(0,2.5000001e-5)"
         clip-rule="evenodd"
         id="path134-4" />
    </clipPath>
    <clipPath
       clipPathUnits="userSpaceOnUse"
       id="clipPath136-52">
      <path
         d="M 0,1037.5937 H 1815.789 V 0 H 0 Z"
         transform="translate(0,2.5000001e-5)"
         clip-rule="evenodd"
         id="path136-6" />
    </clipPath>
    <clipPath
       clipPathUnits="userSpaceOnUse"
       id="clipPath138-95">
      <path
         d="M 0,1037.5937 H 1815.789 V 0 H 0 Z"
         transform="translate(0,2.5000001e-5)"
         clip-rule="evenodd"
         id="path138-0" />
    </clipPath>
    <clipPath
       clipPathUnits="userSpaceOnUse"
       id="clipPath140-3">
      <path
         d="M 0,1037.5937 H 1815.789 V 0 H 0 Z"
         transform="translate(0,2.5000001e-5)"
         clip-rule="evenodd"
         id="path140-0" />
    </clipPath>
    <clipPath
       clipPathUnits="userSpaceOnUse"
       id="clipPath142-28">
      <path
         d="M 0,1037.5937 H 1815.789 V 0 H 0 Z"
         transform="translate(0,2.5000001e-5)"
         clip-rule="evenodd"
         id="path142-31" />
    </clipPath>
    <clipPath
       clipPathUnits="userSpaceOnUse"
       id="clipPath144-78">
      <path
         d="M 0,1037.5937 H 1815.789 V 0 H 0 Z"
         transform="translate(0,2.5000001e-5)"
         clip-rule="evenodd"
         id="path144-6" />
    </clipPath>
    <clipPath
       clipPathUnits="userSpaceOnUse"
       id="clipPath146-8">
      <path
         d="M 0,1037.5937 H 1815.789 V 0 H 0 Z"
         transform="translate(0,2.5000001e-5)"
         clip-rule="evenodd"
         id="path146-6" />
    </clipPath>
    <clipPath
       clipPathUnits="userSpaceOnUse"
       id="clipPath148-7">
      <path
         d="M 0,1037.5937 H 1815.789 V 0 H 0 Z"
         transform="translate(0,2.5000001e-5)"
         clip-rule="evenodd"
         id="path148-4" />
    </clipPath>
    <clipPath
       clipPathUnits="userSpaceOnUse"
       id="clipPath150-00">
      <path
         d="M 0,1037.5937 H 1815.789 V 0 H 0 Z"
         transform="translate(0,2.5000001e-5)"
         clip-rule="evenodd"
         id="path150-87" />
    </clipPath>
    <clipPath
       clipPathUnits="userSpaceOnUse"
       id="clipPath150-00-0">
      <path
         d="M 0,1037.5937 H 1815.789 V 0 H 0 Z"
         transform="translate(0,2.5000001e-5)"
         clip-rule="evenodd"
         id="path150-87-2" />
    </clipPath>
  </defs>
  <g
     inkscape:label="Layer 1"
     inkscape:groupmode="layer"
     id="layer1">
    <g
       id="g1"
       transform="translate(-2.0877878)">
      <g
         id="g2"
         transform="matrix(0.67418927,0,0,0.66827309,-0.54361411,-76.030086)"
         inkscape:label="g2"
         style="fill:#079be1;fill-opacity:1">
        <path
           id="path93"
           d="m 141.0931,666.9833 -2.3894,14.0341 c -0.3979,2.336 -0.1216,4.2296 0.8218,5.6792 0.9431,1.4496 2.27,2.3199 3.9799,2.611 1.4334,0.2443 2.7391,0.008 3.9135,-0.7158 0.7894,-0.475 1.474,-1.2583 2.0695,-2.3357 0.1211,1.8145 0.6203,3.2116 1.5013,4.2097 0.8824,0.9922 2.0931,1.622 3.6334,1.8845 1.2586,0.2143 2.437,0.1128 3.5402,-0.2974 1.1047,-0.4155 2.0307,-1.0825 2.7896,-1.9927 0.4691,-0.5703 0.8954,-1.4732 1.275,-2.7153 0.508,-1.6495 0.811,-2.7476 0.9051,-3.3007 l 2.2017,-12.9333 z m 8.2287,9.1704 -0.5562,3.2669 c -0.1993,1.1679 -0.5414,1.952 -1.0202,2.3409 -0.4839,0.388 -1.1044,0.5201 -1.8663,0.3903 -0.705,-0.1202 -1.2189,-0.4453 -1.5361,-0.9697 -0.3229,-0.5256 -0.3841,-1.3604 -0.1908,-2.4948 l 0.5647,-3.3177 z m 9.5133,1.6197 -0.6502,3.82 c -0.2203,1.2923 -0.6058,2.1614 -1.1532,2.6138 -0.5476,0.453 -1.2019,0.6146 -1.9754,0.4828 -0.7164,-0.1222 -1.2479,-0.4797 -1.5931,-1.0786 -0.345,-0.5987 -0.4085,-1.5557 -0.1846,-2.8707 l 0.648,-3.8035 z m -10.923,24.179 c -4.0116,0.0691 -7.1172,1.2396 -9.3107,3.5155 -2.1991,2.2768 -3.2615,5.4091 -3.1926,9.4042 0.0711,4.0918 1.2242,7.2261 3.4545,9.4031 2.2363,2.1773 5.3346,3.2287 9.2889,3.1604 2.8729,-0.0499 5.2169,-0.5712 7.0376,-1.5702 1.8204,-0.9992 3.2266,-2.4258 4.2193,-4.2695 0.993,-1.8488 1.4633,-4.1352 1.4157,-6.8658 -0.0479,-2.7694 -0.5281,-5.057 -1.4406,-6.8618 -0.9184,-1.7989 -2.3406,-3.2514 -4.2715,-4.3458 -1.9253,-1.0945 -4.3277,-1.6197 -7.2006,-1.5701 z m 0.1485,7.5886 c 2.4781,-0.0431 4.2718,0.3898 5.3694,1.2926 1.0976,0.9082 1.6628,2.1586 1.6903,3.7494 0.0284,1.6305 -0.4819,2.9109 -1.5256,3.8214 -1.0485,0.9173 -2.9409,1.3966 -5.6939,1.4445 -2.312,0.0397 -4.0085,-0.4008 -5.0891,-1.315 -1.0868,-0.9201 -1.6404,-2.1759 -1.6685,-3.7783 -0.0263,-1.5335 0.4958,-2.7793 1.5614,-3.7247 1.0655,-0.9522 2.8547,-1.4465 5.356,-1.4899 z m 13.2871,27.1837 -23.9609,5.5293 2.8471,12.3375 c 0.5278,2.2864 1.1268,3.9926 1.8011,5.106 0.6696,1.12 1.6257,1.9276 2.8568,2.4251 1.2365,0.496 2.6209,0.564 4.1488,0.2117 1.3277,-0.3064 2.4111,-0.8561 3.2448,-1.6475 0.8399,-0.7877 1.4408,-1.7487 1.8127,-2.8859 0.2336,-0.7181 0.3513,-1.6612 0.3484,-2.818 0.4995,0.8133 0.9366,1.3876 1.3252,1.7207 0.2571,0.223 0.7725,0.5213 1.5333,0.892 0.7599,0.3651 1.3362,0.5961 1.7277,0.6883 l 7.7513,1.9998 -1.9304,-8.3659 -8.219,-2.2683 c -1.0639,-0.2831 -1.7805,-0.5876 -2.1549,-0.9127 -0.4918,-0.4507 -0.8161,-1.0159 -0.9717,-1.6912 l -0.1506,-0.6522 9.7045,-2.2394 z m -12.5078,10.7113 0.722,3.1286 c 0.0771,0.3347 0.1173,1.0187 0.1238,2.0392 0.0182,0.5128 -0.14,0.9723 -0.4762,1.3731 -0.335,0.4059 -0.7619,0.6693 -1.2864,0.7906 -0.7752,0.1789 -1.4286,0.0709 -1.9544,-0.3246 -0.5318,-0.3943 -0.9508,-1.2668 -1.2634,-2.622 l -0.7518,-3.2573 z m -2.3482,29.4752 4.2307,10.4706 c 0.8319,2.0596 1.7889,3.6176 2.859,4.661 1.0749,1.0409 2.3009,1.7677 3.6828,2.179 1.3852,0.4031 2.8431,0.5119 4.3837,0.3214 1.5427,-0.1851 3.0881,-0.5932 4.6429,-1.222 2.4364,-0.9839 4.2137,-2.0233 5.3314,-3.1229 1.1194,-1.0945 1.9341,-2.3187 2.4426,-3.6726 0.5088,-1.3538 0.6871,-2.654 0.5326,-3.9067 -0.2097,-1.7118 -0.5691,-3.1969 -1.0748,-4.4492 l -4.231,-10.4709 z m 8.0019,4.953 12.4506,-5.031 0.6993,1.7303 c 0.5958,1.4751 0.8563,2.5926 0.7855,3.3497 -0.0783,0.7537 -0.4487,1.4717 -1.1172,2.1552 -0.6735,0.6862 -1.9187,1.3929 -3.7448,2.1302 -2.4143,0.9757 -4.2239,1.2504 -5.4352,0.8195 -1.2109,-0.4303 -2.1863,-1.5613 -2.9262,-3.3919 z m 32.3906,28.3056 -4.6774,-7.2281 2.7309,-3.2397 -4.2137,-6.5114 -15.6164,21.1305 4.5187,6.9826 25.6519,-5.6234 -4.3231,-6.6795 z m -5.343,1.5415 -8.8781,2.5478 5.955,-7.0651 z m 18.9278,9.9096 -16.9087,17.8546 9.1931,8.7063 c 1.7041,1.6135 3.147,2.704 4.3239,3.259 1.1773,0.5633 2.4205,0.7073 3.7211,0.4411 1.3045,-0.2702 2.4959,-0.9788 3.5745,-2.1172 0.9365,-0.9896 1.5352,-2.0463 1.7926,-3.1666 0.2647,-1.1208 0.2344,-2.2535 -0.0848,-3.4072 -0.2021,-0.7274 -0.6261,-1.5784 -1.2676,-2.5407 0.8654,0.4016 1.5477,0.6381 2.0557,0.7015 0.3376,0.0434 0.9317,0.007 1.7705,-0.1046 0.8348,-0.1162 1.4431,-0.2423 1.8201,-0.3818 l 7.5648,-2.6192 -6.2339,-5.9037 -8.1029,2.6541 c -1.0428,0.352 -1.8085,0.4946 -2.3,0.4306 -0.6591,-0.1035 -1.2416,-0.3952 -1.7447,-0.8714 l -0.4859,-0.4604 6.8482,-7.2317 z m -4.5006,15.8406 2.3318,2.2079 c 0.2494,0.2361 0.6607,0.784 1.2302,1.6308 0.2991,0.4169 0.421,0.8875 0.3623,1.4071 -0.0544,0.5235 -0.2645,0.9791 -0.6344,1.3697 -0.5474,0.5777 -1.1514,0.8495 -1.8085,0.8107 -0.661,-0.0346 -1.4922,-0.5304 -2.5024,-1.4868 l -2.4268,-2.2986 z m 13.0218,25.6351 19.5352,12.3537 3.2491,-5.1373 -6.5599,-4.1487 9.8937,-15.6456 -6.4148,-4.0569 -9.894,15.6458 -6.5602,-4.1488 z"
           style="fill:#079be1;fill-opacity:1;fill-rule:nonzero;stroke:none"
           transform="matrix(0.40821742,0,0,-0.40821742,-32.81233,482.04602)"
           clip-path="url(#clipPath94-5)" />
        <path
           id="path95"
           d="m 453.1929,594.3535 c -2.592,2.2263 -2.8882,6.1325 -0.6618,8.7242 2.2263,2.5917 6.1324,2.8882 8.7241,0.6619 2.592,-2.2264 2.8883,-6.1325 0.6619,-8.7245 -2.2263,-2.5917 -6.1324,-2.888 -8.7242,-0.6616"
           style="fill:#079be1;fill-opacity:1;fill-rule:evenodd;stroke:none"
           transform="matrix(0.40821742,0,0,-0.40821742,-32.81233,482.04602)"
           clip-path="url(#clipPath96-7)" />
        <path
           id="path97"
           d="m 361.4136,888.2396 c -0.6321,-3.3579 -3.8667,-5.5675 -7.2243,-4.9354 -3.358,0.6321 -5.5676,3.8668 -4.9354,7.2247 0.6321,3.3579 3.8667,5.5675 7.2246,4.9354 3.3577,-0.6321 5.5673,-3.8668 4.9351,-7.2247"
           style="fill:#079be1;fill-opacity:1;fill-rule:evenodd;stroke:none"
           transform="matrix(0.40821742,0,0,-0.40821742,-32.81233,482.04602)"
           clip-path="url(#clipPath98-18)" />
        <path
           id="path99"
           d="m 152.7917,661.8141 c 3.2238,1.1313 6.7549,-0.5652 7.8865,-3.7891 1.1313,-3.2238 -0.5652,-6.755 -3.7891,-7.8865 -3.2241,-1.1314 -6.7552,0.5652 -7.8865,3.789 -1.1313,3.2239 0.5649,6.755 3.7891,7.8866"
           style="fill:#079be1;fill-opacity:1;fill-rule:evenodd;stroke:none"
           transform="matrix(0.40821742,0,0,-0.40821742,-32.81233,482.04602)"
           clip-path="url(#clipPath100-2)" />
        <path
           id="path101"
           d="m 464.6049,608.1707 c -2.8034,1.9533 -3.4925,5.8096 -1.5392,8.613 1.9534,2.8032 5.8096,3.4923 8.6131,1.5393 2.8032,-1.9534 3.4923,-5.8099 1.5392,-8.6131 -1.9533,-2.8032 -5.8096,-3.4926 -8.6131,-1.5392"
           style="fill:#079be1;fill-opacity:1;fill-rule:evenodd;stroke:none"
           transform="matrix(0.40821742,0,0,-0.40821742,-32.81233,482.04602)"
           clip-path="url(#clipPath102-6)" />
        <path
           id="path103"
           d="m 343.6251,891.2897 c -0.29,-3.4044 -3.2851,-5.9295 -6.6895,-5.6395 -3.4044,0.29 -5.9295,3.285 -5.6395,6.6895 0.29,3.4044 3.2851,5.9295 6.6895,5.6395 3.4044,-0.29 5.9295,-3.2851 5.6395,-6.6895"
           style="fill:#079be1;fill-opacity:1;fill-rule:evenodd;stroke:none"
           transform="matrix(0.40821742,0,0,-0.40821742,-32.81233,482.04602)"
           clip-path="url(#clipPath104-7)" />
        <path
           id="path105"
           d="m 158.9281,644.959 c 3.0932,1.4513 6.7773,0.1199 8.2284,-2.9733 1.4513,-3.0931 0.1199,-6.7776 -2.9733,-8.2287 -3.0934,-1.4513 -6.7776,-0.1199 -8.2286,2.9733 -1.4514,3.0934 -0.12,6.7776 2.9735,8.2287"
           style="fill:#079be1;fill-opacity:1;fill-rule:evenodd;stroke:none"
           transform="matrix(0.40821742,0,0,-0.40821742,-32.81233,482.04602)"
           clip-path="url(#clipPath106-4)" />
        <path
           id="path107"
           d="m 473.7444,621.7121 c -2.9713,1.6869 -4.0124,5.4635 -2.3255,8.4347 1.6869,2.971 5.4632,4.0125 8.4345,2.3256 2.9715,-1.6872 4.0124,-5.4635 2.3258,-8.4348 -1.6872,-2.9713 -5.4635,-4.0124 -8.4348,-2.3255"
           style="fill:#079be1;fill-opacity:1;fill-rule:evenodd;stroke:none"
           transform="matrix(0.40821742,0,0,-0.40821742,-32.81233,482.04602)"
           clip-path="url(#clipPath108-9)" />
        <path
           id="path109"
           d="m 327.2156,892.4924 c 0.0247,-3.4168 -2.7252,-6.2067 -6.1418,-6.2314 -3.4166,-0.0249 -6.2065,2.7253 -6.2314,6.1419 -0.0247,3.4166 2.7255,6.2064 6.1421,6.2314 3.4166,0.0246 6.2065,-2.7253 6.2311,-6.1419"
           style="fill:#079be1;fill-opacity:1;fill-rule:evenodd;stroke:none"
           transform="matrix(0.40821742,0,0,-0.40821742,-32.81233,482.04602)"
           clip-path="url(#clipPath110-33)" />
        <path
           id="path111"
           d="m 165.9787,630.2055 c 2.9466,1.7297 6.7377,0.743 8.4674,-2.2034 1.7297,-2.9466 0.7432,-6.7379 -2.2034,-8.4676 -2.9466,-1.7297 -6.7377,-0.743 -8.4674,2.2034 -1.7297,2.9466 -0.7432,6.7376 2.2034,8.4676"
           style="fill:#079be1;fill-opacity:1;fill-rule:evenodd;stroke:none"
           transform="matrix(0.40821742,0,0,-0.40821742,-32.81233,482.04602)"
           clip-path="url(#clipPath112-08)" />
        <path
           id="path113"
           d="m 481.5984,636.0372 c -3.1139,1.4063 -4.4983,5.0709 -3.0921,8.1848 1.4063,3.1141 5.0709,4.4986 8.1848,3.0923 3.1138,-1.4063 4.4983,-5.0709 3.092,-8.1848 -1.406,-3.1141 -5.0709,-4.4985 -8.1847,-3.0923"
           style="fill:#079be1;fill-opacity:1;fill-rule:evenodd;stroke:none"
           transform="matrix(0.40821742,0,0,-0.40821742,-32.81233,482.04602)"
           clip-path="url(#clipPath114-45)" />
        <path
           id="path115"
           d="m 310.7656,892.1792 c 0.339,-3.4001 -2.1424,-6.4312 -5.5423,-6.7703 -3.3999,-0.3393 -6.4312,2.1422 -6.7703,5.5423 -0.3393,3.3999 2.1425,6.431 5.5421,6.77 3.3998,0.3393 6.4312,-2.1421 6.7705,-5.542"
           style="fill:#079be1;fill-opacity:1;fill-rule:evenodd;stroke:none"
           transform="matrix(0.40821742,0,0,-0.40821742,-32.81233,482.04602)"
           clip-path="url(#clipPath116-7)" />
        <path
           id="path117"
           d="m 174.3576,616.1632 c 2.7749,1.9939 6.6408,1.3604 8.6344,-1.4144 1.9936,-2.7746 1.3603,-6.6408 -1.4145,-8.6344 -2.7749,-1.9936 -6.6407,-1.36 -8.6344,1.4145 -1.9936,2.7748 -1.3603,6.6407 1.4145,8.6343"
           style="fill:#079be1;fill-opacity:1;fill-rule:evenodd;stroke:none"
           transform="matrix(0.40821742,0,0,-0.40821742,-32.81233,482.04602)"
           clip-path="url(#clipPath118-74)" />
        <path
           id="path119"
           d="m 488.1005,651.0246 c -3.2304,1.1137 -4.9462,4.6355 -3.8325,7.8655 1.1135,3.2301 4.6352,4.9462 7.8653,3.8325 3.2301,-1.1137 4.9462,-4.6352 3.8325,-7.8653 -1.1135,-3.2301 -4.6352,-4.9462 -7.8653,-3.8327"
           style="fill:#079be1;fill-opacity:1;fill-rule:evenodd;stroke:none"
           transform="matrix(0.40821742,0,0,-0.40821742,-32.81233,482.04602)"
           clip-path="url(#clipPath120-7)" />
        <path
           id="path121"
           d="m 294.4137,890.3531 c 0.6508,-3.3542 -1.5412,-6.6013 -4.8955,-7.2518 -3.3539,-0.6506 -6.601,1.5412 -7.2516,4.8954 -0.6508,3.3542 1.5412,6.6013 4.8955,7.2519 3.3542,0.6505 6.601,-1.5412 7.2516,-4.8955"
           style="fill:#079be1;fill-opacity:1;fill-rule:evenodd;stroke:none"
           transform="matrix(0.40821742,0,0,-0.40821742,-32.81233,482.04602)"
           clip-path="url(#clipPath122-96)" />
        <path
           id="path123"
           d="m 183.9937,602.9524 c 2.5796,2.2405 6.4874,1.9655 8.7279,-0.6137 2.2405,-2.5796 1.9658,-6.4874 -0.6137,-8.7279 -2.5795,-2.2408 -6.4874,-1.9658 -8.7279,0.6137 -2.2405,2.5792 -1.9658,6.4871 0.6137,8.7279"
           style="fill:#079be1;fill-opacity:1;fill-rule:evenodd;stroke:none"
           transform="matrix(0.40821742,0,0,-0.40821742,-32.81233,482.04602)"
           clip-path="url(#clipPath124-8)" />
        <path
           id="path125"
           d="m 493.1952,666.5471 c -3.3191,0.8115 -5.3518,4.1604 -4.5403,7.4792 0.8116,3.3188 4.1602,5.3518 7.4792,4.5403 3.3191,-0.8116 5.3519,-4.1605 4.5403,-7.4793 -0.8116,-3.319 -4.1604,-5.3518 -7.4792,-4.5402"
           style="fill:#079be1;fill-opacity:1;fill-rule:evenodd;stroke:none"
           transform="matrix(0.40821742,0,0,-0.40821742,-32.81233,482.04602)"
           clip-path="url(#clipPath126-28)" />
        <path
           id="path127"
           d="m 278.2996,887.0295 c 0.9567,-3.2802 -0.927,-6.715 -4.2069,-7.6717 -3.28,-0.9567 -6.715,0.927 -7.6717,4.2072 -0.9567,3.28 0.9272,6.715 4.2072,7.6717 3.2799,0.9564 6.7149,-0.9272 7.6714,-4.2072"
           style="fill:#079be1;fill-opacity:1;fill-rule:evenodd;stroke:none"
           transform="matrix(0.40821742,0,0,-0.40821742,-32.81233,482.04602)"
           clip-path="url(#clipPath128-9)" />
        <path
           id="path129"
           d="m 194.8051,590.6843 c 2.3624,2.4687 6.2787,2.5546 8.7471,0.1925 2.4687,-2.3624 2.5549,-6.2788 0.1925,-8.7474 -2.3624,-2.4687 -6.279,-2.5546 -8.7474,-0.1922 -2.4684,2.3621 -2.5546,6.2787 -0.1922,8.7471"
           style="fill:#079be1;fill-opacity:1;fill-rule:evenodd;stroke:none"
           transform="matrix(0.40821742,0,0,-0.40821742,-32.81233,482.04602)"
           clip-path="url(#clipPath130-3)" />
        <path
           id="path131"
           d="m 496.8394,682.4724 c -3.3797,0.5026 -5.7121,3.6499 -5.2095,7.0296 0.5026,3.3795 3.6499,5.7119 7.0296,5.2093 3.3795,-0.5026 5.7118,-3.6499 5.2093,-7.0294 -0.5026,-3.3794 -3.6499,-5.7121 -7.0294,-5.2095"
           style="fill:#079be1;fill-opacity:1;fill-rule:evenodd;stroke:none"
           transform="matrix(0.40821742,0,0,-0.40821742,-32.81233,482.04602)"
           clip-path="url(#clipPath132-9)" />
        <path
           id="path133"
           d="m 262.5599,882.2364 c 1.2546,-3.1779 -0.305,-6.7717 -3.4829,-8.026 -3.1782,-1.2546 -6.772,0.3047 -8.0263,3.4829 -1.2546,3.1782 0.305,6.7717 3.4829,8.0263 3.1779,1.2546 6.7717,-0.305 8.0263,-3.4832"
           style="fill:#079be1;fill-opacity:1;fill-rule:evenodd;stroke:none"
           transform="matrix(0.40821742,0,0,-0.40821742,-32.81233,482.04602)"
           clip-path="url(#clipPath134-4)" />
        <path
           id="path135"
           d="m 206.6995,579.4637 c 2.1252,2.6756 6.0171,3.1217 8.6928,0.9969 2.6753,-2.1251 3.1215,-6.0171 0.9966,-8.6927 -2.1251,-2.6754 -6.0171,-3.1218 -8.6924,-0.9967 -2.6756,2.1251 -3.1221,6.0168 -0.997,8.6925"
           style="fill:#079be1;fill-opacity:1;fill-rule:evenodd;stroke:none"
           transform="matrix(0.40821742,0,0,-0.40821742,-32.81233,482.04602)"
           clip-path="url(#clipPath136-52)" />
        <path
           id="path137"
           d="m 499.002,698.6656 c -3.4115,0.1894 -6.0237,3.1088 -5.8343,6.5203 0.1891,3.4112 3.1085,6.0236 6.52,5.8342 3.4114,-0.1893 6.0239,-3.1087 5.8345,-6.5199 -0.1893,-3.4115 -3.1088,-6.0239 -6.5202,-5.8346"
           style="fill:#079be1;fill-opacity:1;fill-rule:evenodd;stroke:none"
           transform="matrix(0.40821742,0,0,-0.40821742,-32.81233,482.04602)"
           clip-path="url(#clipPath138-95)" />
        <path
           id="path139"
           d="m 247.3282,876.0152 c 1.5418,-3.0492 0.3198,-6.7711 -2.7295,-8.3129 -3.0489,-1.5417 -6.7708,-0.3197 -8.3126,2.7295 -1.5417,3.049 -0.3197,6.7711 2.7292,8.3126 3.049,1.5418 6.7712,0.3198 8.3129,-2.7292"
           style="fill:#079be1;fill-opacity:1;fill-rule:evenodd;stroke:none"
           transform="matrix(0.40821742,0,0,-0.40821742,-32.81233,482.04602)"
           clip-path="url(#clipPath140-3)" />
        <path
           id="path141"
           d="m 219.5768,569.3856 c 1.8697,2.8599 5.7041,3.6624 8.5637,1.7927 2.8599,-1.8695 3.6624,-5.7039 1.7926,-8.5638 -1.8697,-2.8599 -5.7041,-3.6623 -8.5637,-1.7926 -2.8596,1.8697 -3.6624,5.7039 -1.7926,8.5637"
           style="fill:#079be1;fill-opacity:1;fill-rule:evenodd;stroke:none"
           transform="matrix(0.40821742,0,0,-0.40821742,-32.81233,482.04602)"
           clip-path="url(#clipPath142-28)" />
        <path
           id="path143"
           d="m 233.0161,687.5603 c 9.2013,-0.4521 8.356,0.2866 17.1955,8.2211 22.8365,20.4967 51.0698,-4.8167 51.23,-15.0979 0.0765,-4.9184 -6.6333,-14.4066 -8.6615,-18.4105 -8.4963,-16.7766 -19.4103,-41.4816 -23.2081,-59.7356 -3.892,-18.7084 12.9693,-25.8945 26.219,-12.966 9.8484,9.6092 14.8,20.1671 22.3807,32.8808 3.3205,5.5692 5.6608,11.1461 9.3552,17.424 7.215,12.2612 27.6154,39.5121 41.2367,41.9349 5.4632,-4.7614 24.1336,-49.0167 31.6981,-63.9335 3.149,-6.2098 7.0946,-16.302 17.1136,-14.2837 10.2643,2.0681 0.855,17.0625 -1.2773,21.1552 l -21.8585,42.4295 c -3.4174,6.5761 -9.4994,14.4219 -9.1519,23.2954 1.6276,3.6377 32.3277,13.4964 35.2171,14.4086 26.486,8.3687 47.3204,12.7817 64.8104,33.976 5.6087,6.7975 16.1981,24.1597 11.8472,36.0142 -2.6541,-2.5435 -4.6832,-12.6105 -6.6337,-17.132 -16.6858,-38.6847 -62.1042,-41.7028 -92.9055,-51.5427 -5.0757,-1.6214 -13.9453,-5.3345 -19.0511,-4.3906 -2.861,8.1576 -6.3887,18.3827 -9.6967,26.1896 l -18.0777,55.2611 c -1.7467,6.105 -5.9111,24.3136 -10.5471,26.7347 -4.3232,2.2575 -9.3269,-1.2776 -10.1994,-5.7169 -0.9589,-4.879 10.5174,-35.4498 -7.6969,-79.6808 -1.8796,-4.5637 -7.8766,-22.7355 -12.4401,-25.7218 -2.7304,1.1783 -5.6376,4.8109 -8.0527,6.7187 -15.0369,11.88 -19.7915,7.503 -34.0988,9.6273 -0.0949,5.4414 11.8931,16.7434 11.5149,40.3512 -0.2494,15.5684 -7.6901,28.8651 -18.6894,35.3831 -13.5499,8.03 -30.2119,-2.9171 -37.8711,-9.7384 -9.8586,-8.7792 -16.0212,-17.3928 -23.0825,-31.278 -18.6288,-36.6313 -14.4885,-95.785 9.8645,-127.8315 3.5691,-4.6979 22.1596,-25.7562 29.4676,-22.0802 0.3444,4.4782 -13.8509,13.4178 -23.5653,27.1335 -22.6981,32.0477 -23.8728,91.9358 -3.7706,125.0476 23.2446,38.2861 52.895,35.6802 54.9646,6.9647 1.2416,-17.2202 -4.0654,-30.774 -11.1302,-40.9235 -5.2824,-7.5875 -5.2583,-8.3432 -12.011,-13.9303 -9.6364,-7.9739 -9.1789,-8.6556 -10.438,-16.7573 z m 50.885,-92.5744 c 5.5587,1.1979 8.2732,7.0971 10.9945,11.3921 1.8637,2.9433 2.5497,3.3103 4.0623,6.7502 5.5604,12.6434 13.1204,30.7922 9.5879,45.8045 -5.2478,-0.4992 -3.8639,-1.4125 -10.2342,-13.0156 -5.5454,-10.1013 -9.9669,-20.9976 -13.4266,-32.1979 -2.3236,-7.5217 -3.9849,-10.9837 -0.9839,-18.7333 z m 41.1712,67.5992 17.7211,16.4217 c 6.029,5.415 20.2212,13.2565 20.8755,15.0338 1.205,3.2754 -10.9908,32.4935 -13.9913,42.349 -1.3935,4.576 -3.1283,12.4932 -5.8802,13.4334 -2.4309,-5.7997 -4.2842,-15.6965 -6.1769,-22.225 -1.7929,-6.1849 -15.9112,-34.6822 -16.8942,-40.047 -0.79,-4.3107 -0.6197,-9.6628 -0.2883,-14.0619 0.3832,-5.1023 1.131,-9.1 4.6343,-10.904"
           style="fill:#079be1;fill-opacity:1;fill-rule:evenodd;stroke:none"
           transform="matrix(0.40821742,0,0,-0.40821742,-32.81233,482.04602)"
           clip-path="url(#clipPath144-78)" />
        <path
           id="path145"
           d="m 321.9664,564.287 c 0.741,-7.3066 6.3658,-9.893 11.751,-13.7254 l -2.099,-0.5312 c -0.2106,-0.0343 -0.4918,-0.0819 -0.7277,-0.1134 -2.8564,-0.383 -9.0093,-0.5148 -11.637,0.4768 -2.4211,0.9139 -6.1504,6.088 -8.6766,8.6099 -4.824,4.8161 -13.1933,14.2076 -23.3036,9.5559 0.6916,-4.6851 10.87,-10.523 12.5407,-14.9363 -10.0128,1.4567 -32.2735,20.7527 -41.4212,7.327 1.0797,-3.4523 14.2123,-10.5452 17.1085,-11.4001 8.1893,-2.4177 18.4487,2.2612 23.7756,-2.1059 -2.2445,-2.6263 -3.0833,0.3977 -9.8467,-4.2474 -3.4444,-2.3655 -5.1789,-5.688 -5.7221,-10.7827 5.69,-1.3025 19.8094,0.8206 24.0367,3.3171 10.5483,6.2303 6.963,10.7303 22.3563,8.4164 -4.2052,-8.2786 -6.5934,-3.8943 -8.045,-18.758 4.3021,-0.8932 13.2548,2.2359 17.471,3.4146 20.2096,5.6497 19.2609,17.4033 27.294,20.3278 7.2638,2.6444 19.046,4.2769 33.4298,10.6106 5.5126,2.4273 9.6829,4.4836 15.4653,7.5759 10.4802,5.6044 18.9479,11.1915 28.4037,18.9193 1.1602,0.9482 5.7951,5.0335 0.9984,5.849 l -20.6343,-14.1452 c -9.3467,-6.1234 -19.432,-11.1931 -30.5974,-15.658 -5.3045,-2.1211 -11.734,-4.3458 -16.8245,-5.6755 -6.0435,-1.5786 -11.7391,-4.7322 -18.1199,0.1137 -5.8068,4.4095 -7.4639,7.6053 -17.2996,8.8619 -4.5629,0.5828 -15.976,0.1678 -19.6764,-1.2968"
           style="fill:#079be1;fill-opacity:1;fill-rule:evenodd;stroke:none"
           transform="matrix(0.40821742,0,0,-0.40821742,-32.81233,482.04602)"
           clip-path="url(#clipPath146-8)" />
        <path
           id="path147"
           d="m 370.8009,882.7625 c 3.06,-1.6818 18.6196,-6.0267 29.0894,-11.5815 14.9794,-7.9478 24.5684,-14.7447 36.284,-25.3159 6.2124,-5.6055 5.6305,-4.8093 3.8455,-14.6985 -2.4605,-13.6301 6.7822,-27.0434 10.7762,-28.6515 9.3313,5.8907 2.7575,18.2446 1.0754,24.8675 2.1759,-1.3867 6.3363,-7.3638 7.7763,-9.6795 2.8304,-4.5518 5.3946,-8.0554 3.7145,-13.2757 -2.5721,-7.9903 -9.0705,-23.8442 0.8088,-27.0839 3.1906,3.8395 2.971,9.7279 5.1477,13.7233 0.6922,1.2711 0.5267,0.963 1.0939,1.5908 5.8271,-11.0846 -1.5083,-29.2637 10.0771,-37.2189 9.5565,-6.5622 4.6639,19.4797 3.9014,21.0833 -3.0198,6.3502 -7.6,7.5393 -8.184,15.772 2.5515,-1.5787 10.1452,-10.3791 18.7827,-4.9508 -0.7489,3.4351 -10.148,14.0151 -13.7251,16.2125 -6.4941,3.9895 -12.5402,1.6444 -16.3066,15.224 8.2324,-1.1939 10.5849,-2.6234 18.2951,1.2153 -1.2092,5.5493 -16.3411,17.7987 -25.2346,20.2266 -9.547,2.6067 -9.0031,-0.4031 -15.8031,6.3085 -11.6368,11.4857 -24.1693,19.9579 -38.7768,28.0616 -5.1358,2.8496 -26.6397,12.3871 -32.1741,11.8686 z"
           style="fill:#079be1;fill-opacity:1;fill-rule:evenodd;stroke:none"
           transform="matrix(0.40821742,0,0,-0.40821742,-32.81233,482.04602)"
           clip-path="url(#clipPath148-7)" />
      </g>
      <path
         id="path149"
         d="m 617.3977,810.0247 c 5.7901,3.4503 23.4562,27.8005 56.1169,49.6533 14.2526,9.5366 59.0386,34.0257 80.002,21.3866 16.2649,-25.782 -33.0248,-67.4748 -49.2458,-74.1396 2.7462,10.7237 13.9111,15.66 12.1326,30.4999 -6.0823,9.5261 -14.1026,15.988 -28.8842,14.1732 -9.8118,-4.2355 -44.1595,-62.5084 -51.6044,-78.1004 -9.2189,-19.3085 -9.7263,-11.5262 -22.1896,-22.6942 1.5593,-20.298 3.8145,-12.219 -5.2796,-32.2512 -4.8639,-10.7141 -8.6649,-18.3001 -12.6224,-30.5991 -3.2286,-10.0355 -7.7074,-21.6068 -10.2444,-30.6967 -2.9817,-10.6832 -2.7402,-27.8699 -7.3672,-35.793 -15.8508,3.9279 -4.1998,13.5051 -17.6094,14.7801 -3.363,-22.0122 21.6876,-36.411 28.3932,-43.7499 5.224,-5.7161 6.3264,-9.4709 13.9658,-11.8551 l 1.2299,11.8738 c 49.8631,2.99 112.4028,41.1216 146.9515,80.079 5.6792,6.4032 2.9389,5.0443 12.0804,7.6725 -0.6359,-23.1811 -0.0899,-30.0191 12.869,-45.178 35.5269,-41.5565 82.4482,18.701 100.0737,46.5713 14.3184,22.6391 35.1332,60.546 9.7759,86.0643 -5.7487,5.7847 -10.5341,6.9809 -16.8854,12.0274 -4.2387,3.3668 -11.0291,11.4977 -18.6659,11.6998 -6.1628,0.1635 -33.2297,-15.8553 -38.2887,-20.0209 l 3.7579,-8.8523 c -6.8615,-5.1349 -12.2233,-14.538 -17.4334,-21.6765 -5.1097,-7.0016 -9.1312,-18.6917 -19.2225,-22.3234 1.5233,51.9321 -13.1043,49.4773 -49.252,65.8936 l -4.4822,2.4792 c -0.3645,0.2126 -1.0167,0.6083 -1.476,0.9788 13.7662,15.0724 43.945,36.8875 49.6514,60.3445 5.6333,23.1573 -24.5106,96.4338 -129.1093,21.8015 -10.5792,-7.5481 -39.1975,-29.6501 -39.4084,-42.9641 -0.1451,-9.1437 4.8166,-14.7946 12.2706,-17.0844 z M 606.0495,624.054 c 25.5504,-0.9164 83.249,35.4921 99.3234,46.9324 16.3333,11.6241 82.5761,64.7028 51.3397,87.1158 -19.9598,14.3206 -60.5551,14.0899 -87.8918,-7.1691 -11.5212,-8.9598 -62.254,-106.5328 -62.7713,-126.8791 z m 910.2266,207.7793 c -27.5962,-1.1815 -57.3563,5.5307 -61.7655,-2.2674 -6.0931,-10.7751 -2.3508,-16.6936 3.9038,-23.6248 3.1187,-3.4557 0.6027,-0.1103 3.1227,-3.5768 -3.9768,-6.2226 -26.208,-23.6443 -42.0279,-43.0018 -8.4019,-10.281 -30.9801,-45.3269 -37.0749,-49.8079 0.5967,13.9079 8.9385,27.7506 4.8631,42.1467 -3.4764,12.2768 -15.0074,22.3761 -29.6943,22.1326 2.9347,-47.6898 -34.3724,-105.709 -36.5477,-130.6641 -1.3994,-16.0555 13.3804,-30.4541 26.4362,-30.331 4.2455,5.8906 12.8778,30.1158 16.7862,38.6373 11.6232,25.3406 49.8657,94.9561 70.8217,102.4056 -1.3896,-13.4958 -29.9158,-77.1339 12.9013,-76.7625 -2.939,34.0089 17.8829,70.3652 35.3256,96.7039 11.7355,17.7208 0.5074,15.3377 -3.3531,27.6406 l 22.7889,0.3065 c 0,-7.3678 -1.4216,-8.0771 -4.0125,-12.1927 -15.2637,-24.2464 -46.6752,-128.7629 -47.8048,-162.4558 -0.7203,-21.5101 10.6523,-48.8494 24.9528,-48.1073 -1.3085,16.8383 -7.6241,9.4586 -1.1294,52.1379 2.7786,18.2596 7.8208,33.6591 13.0731,49.479 5.3635,16.1564 11.4838,27.7279 17.5306,41.8051 5.961,13.879 33.4471,72.9604 41.1619,80.7704 6.787,6.8703 39.1496,8.5042 51.1847,10.8278 23.3526,4.5079 80.89,16.9959 86.8813,33.7028 -7.079,3.342 -79.4526,-15.4234 -118.7158,-12.7551 2.9375,11.1804 15.6509,27.4555 21.6978,38.7388 7.8729,14.6923 -5.8601,31.5468 -23.2804,29.2159 -15.4588,-2.0693 -38.9602,-58.167 -48.0254,-71.1037 z M 1163.937,772.6309 c -24.592,6.2674 -23.5633,55.4261 -84.9677,-9.0445 -18.5816,-19.5095 -68.2429,-80.9799 -61.3712,-113.4797 1.8598,-8.7925 6.8848,-16.5504 12.6992,-22.6307 19.8938,-20.804 28.6084,-8.2967 40.8935,7.7908 10.6169,13.9033 50.5136,72.0929 66.8086,77.2395 -1.6089,-16.7221 -35.4149,-111.6028 11.501,-125.0186 1.7878,2.4389 2.6464,0.4343 2.4086,10.1945 l 9.1049,-1.6325 c 2.4185,13.5032 20.5089,45.9185 28.1285,59.3473 6.561,11.5648 6.9539,20.0421 22.0926,21.5572 11.6839,1.1699 31.2174,1.9636 42.0217,1.9647 0.5096,-15.8049 -13.5454,-46.8221 -14.5228,-82.7201 -0.6766,-24.8513 10.3703,-65.4913 35.6797,-61.1282 1.2906,25.694 -5.7149,31.0793 4.2593,78.5692 4.1086,19.5625 12.8135,50.6365 20.4429,65.5166 l 19.8723,-1.8717 2.8114,18.3442 c -4.4467,2.5143 -8.7576,4.4407 -13.3786,7.7391 1.972,19.6447 40.0793,87.1279 50.966,105.4253 12.9147,21.706 20.458,32.2112 -4.1105,48.7565 -21.0889,14.2018 -34.5668,11.9738 -52.475,-4.3552 -44.9878,-41.021 -82.7217,-105.6804 -115.0302,-159.0548 -6.0967,-10.0729 -12.7519,-10.9689 -25.7184,-13.3503 1.442,32.5576 59.4504,123.4959 83.8213,150.9828 25.897,29.2102 -11.6844,41.8542 -15.9398,40.2818 -11.5117,-4.2531 -59.627,-94.0388 -65.9973,-99.4232 z m 51.0627,-77.3581 48.0365,5.8768 c 5.7557,12.5793 14.7438,46.5843 24.1106,66.7551 4.9587,10.6769 24.5328,56.7739 25.3508,67.1371 -20.0565,-10.2024 -95.6262,-121.4311 -97.4979,-139.769 z M 1045.823,632.8222 c 11.1129,5.1653 20.4854,21.3752 27.9694,30.8245 l 53.6015,61.8165 c 5.2426,5.2665 24.8788,22.0397 28.7943,29.4653 -13.8563,39.2706 -51.6611,-19.9346 -65.4673,-38.1657 -14.5531,-19.2163 -43.5943,-60.3258 -44.8979,-83.9406 z m -97.8534,71.2309 c 0.8946,16.7321 9.5907,26.2576 6.2813,46.9191 -2.1717,13.5541 -16.443,23.8532 -29.2011,24.0868 -0.4907,-56.6719 -34.5257,-107.9254 -36.0122,-131.5074 -0.9751,-15.4746 12.0821,-31.2792 27.1834,-30.725 9.555,27.0428 22.7639,55.1783 36.5947,78.9284 7.9089,13.5822 39.4245,61.6156 52.4925,65.6238 -2.8805,-16.2003 -34.7125,-75.2451 9.0306,-79.6221 -2.9721,43.9101 29.776,78.1979 38.5254,99.5074 6.014,14.648 -7.0296,27.3895 -18.4195,25.2145 -21.2009,-4.0474 -72.9011,-76.2129 -86.4751,-98.4255 z M 790.162,638.9005 c 29.8111,-4.5317 75.3781,55.2986 86.2954,81.7186 8.4665,20.4894 7.0974,29.9911 -2.5617,45.2321 -14.5241,-2.7969 -92.6285,-87.8601 -83.7337,-126.9507"
         style="fill:#079be1;fill-opacity:1;fill-rule:evenodd;stroke:none"
         transform="matrix(0.25588657,0,0,-0.25588657,-18.158012,235.86218)"
         clip-path="url(#clipPath150-00-0)" />
    </g>
  </g>
</svg>
