<?xml version="1.0" encoding="UTF-8" standalone="no"?>
<!-- Created with Inkscape (http://www.inkscape.org/) -->

<svg
   width="1500"
   height="491"
   viewBox="0 0 396.875 129.91042"
   version="1.1"
   id="svg1"
   inkscape:export-filename="logo-no-bg.png"
   inkscape:export-xdpi="96"
   inkscape:export-ydpi="96"
   sodipodi:docname="logo-typography-no-bg.svg"
   inkscape:version="1.4.2 (ebf0e940, 2025-05-08)"
   xmlns:inkscape="http://www.inkscape.org/namespaces/inkscape"
   xmlns:sodipodi="http://sodipodi.sourceforge.net/DTD/sodipodi-0.dtd"
   xmlns="http://www.w3.org/2000/svg"
   xmlns:svg="http://www.w3.org/2000/svg">
  <sodipodi:namedview
     id="namedview1"
     pagecolor="#ffffff"
     bordercolor="#999999"
     borderopacity="1"
     inkscape:showpageshadow="true"
     inkscape:pageopacity="0"
     inkscape:pagecheckerboard="true"
     inkscape:deskcolor="#d1d1d1"
     inkscape:document-units="mm"
     labelstyle="default"
     borderlayer="true"
     showborder="true"
     inkscape:antialias-rendering="true"
     inkscape:clip-to-page="false"
     inkscape:zoom="0.24517676"
     inkscape:cx="566.93791"
     inkscape:cy="940.13805"
     inkscape:window-width="1440"
     inkscape:window-height="786"
     inkscape:window-x="0"
     inkscape:window-y="30"
     inkscape:window-maximized="1"
     inkscape:current-layer="layer1">
    <inkscape:page
       x="0"
       y="0"
       width="396.875"
       height="129.91042"
       id="page2"
       margin="0"
       bleed="0" />
  </sodipodi:namedview>
  <defs
     id="defs1">
    <clipPath
       clipPathUnits="userSpaceOnUse"
       id="clipPath94-5">
      <path
         d="M 0,1037.5937 H 1815.789 V 0 H 0 Z"
         transform="translate(0,2.5000001e-5)"
         clip-rule="evenodd"
         id="path94-3" />
    </clipPath>
    <clipPath
       clipPathUnits="userSpaceOnUse"
       id="clipPath96-7">
      <path
         d="M 0,1037.5937 H 1815.789 V 0 H 0 Z"
         transform="translate(0,2.5000001e-5)"
         clip-rule="evenodd"
         id="path96-2" />
    </clipPath>
    <clipPath
       clipPathUnits="userSpaceOnUse"
       id="clipPath98-18">
      <path
         d="M 0,1037.5937 H 1815.789 V 0 H 0 Z"
         transform="translate(0,2.5000001e-5)"
         clip-rule="evenodd"
         id="path98-4" />
    </clipPath>
    <clipPath
       clipPathUnits="userSpaceOnUse"
       id="clipPath100-2">
      <path
         d="M 0,1037.5937 H 1815.789 V 0 H 0 Z"
         transform="translate(0,2.5000001e-5)"
         clip-rule="evenodd"
         id="path100-10" />
    </clipPath>
    <clipPath
       clipPathUnits="userSpaceOnUse"
       id="clipPath102-6">
      <path
         d="M 0,1037.5937 H 1815.789 V 0 H 0 Z"
         transform="translate(0,2.5000001e-5)"
         clip-rule="evenodd"
         id="path102-03" />
    </clipPath>
    <clipPath
       clipPathUnits="userSpaceOnUse"
       id="clipPath104-7">
      <path
         d="M 0,1037.5937 H 1815.789 V 0 H 0 Z"
         transform="translate(0,2.5000001e-5)"
         clip-rule="evenodd"
         id="path104-8" />
    </clipPath>
    <clipPath
       clipPathUnits="userSpaceOnUse"
       id="clipPath106-4">
      <path
         d="M 0,1037.5937 H 1815.789 V 0 H 0 Z"
         transform="translate(0,2.5000001e-5)"
         clip-rule="evenodd"
         id="path106-7" />
    </clipPath>
    <clipPath
       clipPathUnits="userSpaceOnUse"
       id="clipPath108-9">
      <path
         d="M 0,1037.5937 H 1815.789 V 0 H 0 Z"
         transform="translate(0,2.5000001e-5)"
         clip-rule="evenodd"
         id="path108-5" />
    </clipPath>
    <clipPath
       clipPathUnits="userSpaceOnUse"
       id="clipPath110-33">
      <path
         d="M 0,1037.5937 H 1815.789 V 0 H 0 Z"
         transform="translate(0,2.5000001e-5)"
         clip-rule="evenodd"
         id="path110-6" />
    </clipPath>
    <clipPath
       clipPathUnits="userSpaceOnUse"
       id="clipPath112-08">
      <path
         d="M 0,1037.5937 H 1815.789 V 0 H 0 Z"
         transform="translate(0,2.5000001e-5)"
         clip-rule="evenodd"
         id="path112-97" />
    </clipPath>
    <clipPath
       clipPathUnits="userSpaceOnUse"
       id="clipPath114-45">
      <path
         d="M 0,1037.5937 H 1815.789 V 0 H 0 Z"
         transform="translate(0,2.5000001e-5)"
         clip-rule="evenodd"
         id="path114-9" />
    </clipPath>
    <clipPath
       clipPathUnits="userSpaceOnUse"
       id="clipPath116-7">
      <path
         d="M 0,1037.5937 H 1815.789 V 0 H 0 Z"
         transform="translate(0,2.5000001e-5)"
         clip-rule="evenodd"
         id="path116-5" />
    </clipPath>
    <clipPath
       clipPathUnits="userSpaceOnUse"
       id="clipPath118-74">
      <path
         d="M 0,1037.5937 H 1815.789 V 0 H 0 Z"
         transform="translate(0,2.5000001e-5)"
         clip-rule="evenodd"
         id="path118-58" />
    </clipPath>
    <clipPath
       clipPathUnits="userSpaceOnUse"
       id="clipPath120-7">
      <path
         d="M 0,1037.5937 H 1815.789 V 0 H 0 Z"
         transform="translate(0,2.5000001e-5)"
         clip-rule="evenodd"
         id="path120-95" />
    </clipPath>
    <clipPath
       clipPathUnits="userSpaceOnUse"
       id="clipPath122-96">
      <path
         d="M 0,1037.5937 H 1815.789 V 0 H 0 Z"
         transform="translate(0,2.5000001e-5)"
         clip-rule="evenodd"
         id="path122-6" />
    </clipPath>
    <clipPath
       clipPathUnits="userSpaceOnUse"
       id="clipPath124-8">
      <path
         d="M 0,1037.5937 H 1815.789 V 0 H 0 Z"
         transform="translate(0,2.5000001e-5)"
         clip-rule="evenodd"
         id="path124-5" />
    </clipPath>
    <clipPath
       clipPathUnits="userSpaceOnUse"
       id="clipPath126-28">
      <path
         d="M 0,1037.5937 H 1815.789 V 0 H 0 Z"
         transform="translate(0,2.5000001e-5)"
         clip-rule="evenodd"
         id="path126-3" />
    </clipPath>
    <clipPath
       clipPathUnits="userSpaceOnUse"
       id="clipPath128-9">
      <path
         d="M 0,1037.5937 H 1815.789 V 0 H 0 Z"
         transform="translate(0,2.5000001e-5)"
         clip-rule="evenodd"
         id="path128-3" />
    </clipPath>
    <clipPath
       clipPathUnits="userSpaceOnUse"
       id="clipPath130-3">
      <path
         d="M 0,1037.5937 H 1815.789 V 0 H 0 Z"
         transform="translate(0,2.5000001e-5)"
         clip-rule="evenodd"
         id="path130-3" />
    </clipPath>
    <clipPath
       clipPathUnits="userSpaceOnUse"
       id="clipPath132-9">
      <path
         d="M 0,1037.5937 H 1815.789 V 0 H 0 Z"
         transform="translate(0,2.5000001e-5)"
         clip-rule="evenodd"
         id="path132-1" />
    </clipPath>
    <clipPath
       clipPathUnits="userSpaceOnUse"
       id="clipPath134-4">
      <path
         d="M 0,1037.5937 H 1815.789 V 0 H 0 Z"
         transform="translate(0,2.5000001e-5)"
         clip-rule="evenodd"
         id="path134-4" />
    </clipPath>
    <clipPath
       clipPathUnits="userSpaceOnUse"
       id="clipPath136-52">
      <path
         d="M 0,1037.5937 H 1815.789 V 0 H 0 Z"
         transform="translate(0,2.5000001e-5)"
         clip-rule="evenodd"
         id="path136-6" />
    </clipPath>
    <clipPath
       clipPathUnits="userSpaceOnUse"
       id="clipPath138-95">
      <path
         d="M 0,1037.5937 H 1815.789 V 0 H 0 Z"
         transform="translate(0,2.5000001e-5)"
         clip-rule="evenodd"
         id="path138-0" />
    </clipPath>
    <clipPath
       clipPathUnits="userSpaceOnUse"
       id="clipPath140-3">
      <path
         d="M 0,1037.5937 H 1815.789 V 0 H 0 Z"
         transform="translate(0,2.5000001e-5)"
         clip-rule="evenodd"
         id="path140-0" />
    </clipPath>
    <clipPath
       clipPathUnits="userSpaceOnUse"
       id="clipPath142-28">
      <path
         d="M 0,1037.5937 H 1815.789 V 0 H 0 Z"
         transform="translate(0,2.5000001e-5)"
         clip-rule="evenodd"
         id="path142-31" />
    </clipPath>
    <clipPath
       clipPathUnits="userSpaceOnUse"
       id="clipPath144-78">
      <path
         d="M 0,1037.5937 H 1815.789 V 0 H 0 Z"
         transform="translate(0,2.5000001e-5)"
         clip-rule="evenodd"
         id="path144-6" />
    </clipPath>
    <clipPath
       clipPathUnits="userSpaceOnUse"
       id="clipPath146-8">
      <path
         d="M 0,1037.5937 H 1815.789 V 0 H 0 Z"
         transform="translate(0,2.5000001e-5)"
         clip-rule="evenodd"
         id="path146-6" />
    </clipPath>
    <clipPath
       clipPathUnits="userSpaceOnUse"
       id="clipPath148-7">
      <path
         d="M 0,1037.5937 H 1815.789 V 0 H 0 Z"
         transform="translate(0,2.5000001e-5)"
         clip-rule="evenodd"
         id="path148-4" />
    </clipPath>
    <clipPath
       clipPathUnits="userSpaceOnUse"
       id="clipPath150-00">
      <path
         d="M 0,1037.5937 H 1815.789 V 0 H 0 Z"
         transform="translate(0,2.5000001e-5)"
         clip-rule="evenodd"
         id="path150-87" />
    </clipPath>
  </defs>
  <g
     inkscape:label="Layer 1"
     inkscape:groupmode="layer"
     id="layer1">
    <path
       id="path149"
       d="m 617.3977,810.0247 c 5.7901,3.4503 23.4562,27.8005 56.1169,49.6533 14.2526,9.5366 59.0386,34.0257 80.002,21.3866 16.2649,-25.782 -33.0248,-67.4748 -49.2458,-74.1396 2.7462,10.7237 13.9111,15.66 12.1326,30.4999 -6.0823,9.5261 -14.1026,15.988 -28.8842,14.1732 -9.8118,-4.2355 -44.1595,-62.5084 -51.6044,-78.1004 -9.2189,-19.3085 -9.7263,-11.5262 -22.1896,-22.6942 1.5593,-20.298 3.8145,-12.219 -5.2796,-32.2512 -4.8639,-10.7141 -8.6649,-18.3001 -12.6224,-30.5991 -3.2286,-10.0355 -7.7074,-21.6068 -10.2444,-30.6967 -2.9817,-10.6832 -2.7402,-27.8699 -7.3672,-35.793 -15.8508,3.9279 -4.1998,13.5051 -17.6094,14.7801 -3.363,-22.0122 21.6876,-36.411 28.3932,-43.7499 5.224,-5.7161 6.3264,-9.4709 13.9658,-11.8551 l 1.2299,11.8738 c 49.8631,2.99 112.4028,41.1216 146.9515,80.079 5.6792,6.4032 2.9389,5.0443 12.0804,7.6725 -0.6359,-23.1811 -0.0899,-30.0191 12.869,-45.178 35.5269,-41.5565 82.4482,18.701 100.0737,46.5713 14.3184,22.6391 35.1332,60.546 9.7759,86.0643 -5.7487,5.7847 -10.5341,6.9809 -16.8854,12.0274 -4.2387,3.3668 -11.0291,11.4977 -18.6659,11.6998 -6.1628,0.1635 -33.2297,-15.8553 -38.2887,-20.0209 l 3.7579,-8.8523 c -6.8615,-5.1349 -12.2233,-14.538 -17.4334,-21.6765 -5.1097,-7.0016 -9.1312,-18.6917 -19.2225,-22.3234 1.5233,51.9321 -13.1043,49.4773 -49.252,65.8936 l -4.4822,2.4792 c -0.3645,0.2126 -1.0167,0.6083 -1.476,0.9788 13.7662,15.0724 43.945,36.8875 49.6514,60.3445 5.6333,23.1573 -24.5106,96.4338 -129.1093,21.8015 -10.5792,-7.5481 -39.1975,-29.6501 -39.4084,-42.9641 -0.1451,-9.1437 4.8166,-14.7946 12.2706,-17.0844 z M 606.0495,624.054 c 25.5504,-0.9164 83.249,35.4921 99.3234,46.9324 16.3333,11.6241 82.5761,64.7028 51.3397,87.1158 -19.9598,14.3206 -60.5551,14.0899 -87.8918,-7.1691 -11.5212,-8.9598 -62.254,-106.5328 -62.7713,-126.8791 z m 910.2266,207.7793 c -27.5962,-1.1815 -57.3563,5.5307 -61.7655,-2.2674 -6.0931,-10.7751 -2.3508,-16.6936 3.9038,-23.6248 3.1187,-3.4557 0.6027,-0.1103 3.1227,-3.5768 -3.9768,-6.2226 -26.208,-23.6443 -42.0279,-43.0018 -8.4019,-10.281 -30.9801,-45.3269 -37.0749,-49.8079 0.5967,13.9079 8.9385,27.7506 4.8631,42.1467 -3.4764,12.2768 -15.0074,22.3761 -29.6943,22.1326 2.9347,-47.6898 -34.3724,-105.709 -36.5477,-130.6641 -1.3994,-16.0555 13.3804,-30.4541 26.4362,-30.331 4.2455,5.8906 12.8778,30.1158 16.7862,38.6373 11.6232,25.3406 49.8657,94.9561 70.8217,102.4056 -1.3896,-13.4958 -29.9158,-77.1339 12.9013,-76.7625 -2.939,34.0089 17.8829,70.3652 35.3256,96.7039 11.7355,17.7208 0.5074,15.3377 -3.3531,27.6406 l 22.7889,0.3065 c 0,-7.3678 -1.4216,-8.0771 -4.0125,-12.1927 -15.2637,-24.2464 -46.6752,-128.7629 -47.8048,-162.4558 -0.7203,-21.5101 10.6523,-48.8494 24.9528,-48.1073 -1.3085,16.8383 -7.6241,9.4586 -1.1294,52.1379 2.7786,18.2596 7.8208,33.6591 13.0731,49.479 5.3635,16.1564 11.4838,27.7279 17.5306,41.8051 5.961,13.879 33.4471,72.9604 41.1619,80.7704 6.787,6.8703 39.1496,8.5042 51.1847,10.8278 23.3526,4.5079 80.89,16.9959 86.8813,33.7028 -7.079,3.342 -79.4526,-15.4234 -118.7158,-12.7551 2.9375,11.1804 15.6509,27.4555 21.6978,38.7388 7.8729,14.6923 -5.8601,31.5468 -23.2804,29.2159 -15.4588,-2.0693 -38.9602,-58.167 -48.0254,-71.1037 z M 1163.937,772.6309 c -24.592,6.2674 -23.5633,55.4261 -84.9677,-9.0445 -18.5816,-19.5095 -68.2429,-80.9799 -61.3712,-113.4797 1.8598,-8.7925 6.8848,-16.5504 12.6992,-22.6307 19.8938,-20.804 28.6084,-8.2967 40.8935,7.7908 10.6169,13.9033 50.5136,72.0929 66.8086,77.2395 -1.6089,-16.7221 -35.4149,-111.6028 11.501,-125.0186 1.7878,2.4389 2.6464,0.4343 2.4086,10.1945 l 9.1049,-1.6325 c 2.4185,13.5032 20.5089,45.9185 28.1285,59.3473 6.561,11.5648 6.9539,20.0421 22.0926,21.5572 11.6839,1.1699 31.2174,1.9636 42.0217,1.9647 0.5096,-15.8049 -13.5454,-46.8221 -14.5228,-82.7201 -0.6766,-24.8513 10.3703,-65.4913 35.6797,-61.1282 1.2906,25.694 -5.7149,31.0793 4.2593,78.5692 4.1086,19.5625 12.8135,50.6365 20.4429,65.5166 l 19.8723,-1.8717 2.8114,18.3442 c -4.4467,2.5143 -8.7576,4.4407 -13.3786,7.7391 1.972,19.6447 40.0793,87.1279 50.966,105.4253 12.9147,21.706 20.458,32.2112 -4.1105,48.7565 -21.0889,14.2018 -34.5668,11.9738 -52.475,-4.3552 -44.9878,-41.021 -82.7217,-105.6804 -115.0302,-159.0548 -6.0967,-10.0729 -12.7519,-10.9689 -25.7184,-13.3503 1.442,32.5576 59.4504,123.4959 83.8213,150.9828 25.897,29.2102 -11.6844,41.8542 -15.9398,40.2818 -11.5117,-4.2531 -59.627,-94.0388 -65.9973,-99.4232 z m 51.0627,-77.3581 48.0365,5.8768 c 5.7557,12.5793 14.7438,46.5843 24.1106,66.7551 4.9587,10.6769 24.5328,56.7739 25.3508,67.1371 -20.0565,-10.2024 -95.6262,-121.4311 -97.4979,-139.769 z M 1045.823,632.8222 c 11.1129,5.1653 20.4854,21.3752 27.9694,30.8245 l 53.6015,61.8165 c 5.2426,5.2665 24.8788,22.0397 28.7943,29.4653 -13.8563,39.2706 -51.6611,-19.9346 -65.4673,-38.1657 -14.5531,-19.2163 -43.5943,-60.3258 -44.8979,-83.9406 z m -97.8534,71.2309 c 0.8946,16.7321 9.5907,26.2576 6.2813,46.9191 -2.1717,13.5541 -16.443,23.8532 -29.2011,24.0868 -0.4907,-56.6719 -34.5257,-107.9254 -36.0122,-131.5074 -0.9751,-15.4746 12.0821,-31.2792 27.1834,-30.725 9.555,27.0428 22.7639,55.1783 36.5947,78.9284 7.9089,13.5822 39.4245,61.6156 52.4925,65.6238 -2.8805,-16.2003 -34.7125,-75.2451 9.0306,-79.6221 -2.9721,43.9101 29.776,78.1979 38.5254,99.5074 6.014,14.648 -7.0296,27.3895 -18.4195,25.2145 -21.2009,-4.0474 -72.9011,-76.2129 -86.4751,-98.4255 z M 790.162,638.9005 c 29.8111,-4.5317 75.3781,55.2986 86.2954,81.7186 8.4665,20.4894 7.0974,29.9911 -2.5617,45.2321 -14.5241,-2.7969 -92.6285,-87.8601 -83.7337,-126.9507"
       style="fill:#ffffff;fill-opacity:1;fill-rule:evenodd;stroke:none"
       transform="matrix(0.35299531,0,0,-0.35299531,-197.78087,318.80928)"
       clip-path="url(#clipPath150-00)" />
  </g>
</svg>
